<svg width="223" height="24" viewBox="0 0 223 24" fill="none" xmlns="http://www.w3.org/2000/svg">
<path d="M0 8C0 3.58172 3.58172 0 8 0H215C219.418 0 223 3.58172 223 8V16C223 20.4183 219.418 24 215 24H8C3.58172 24 0 20.4183 0 16V8Z" fill="#445260"/>
<path d="M9.15527 17V7.04688H12.4092C13.4893 7.04688 14.3005 7.27018 14.8428 7.7168C15.3896 8.16341 15.6631 8.82422 15.6631 9.69922C15.6631 10.1641 15.5309 10.5765 15.2666 10.9365C15.0023 11.292 14.6423 11.5677 14.1865 11.7637C14.7243 11.9141 15.1481 12.2012 15.458 12.625C15.7725 13.0443 15.9297 13.5456 15.9297 14.1289C15.9297 15.0221 15.6403 15.724 15.0615 16.2344C14.4827 16.7448 13.6647 17 12.6074 17H9.15527ZM10.4678 12.3447V15.9268H12.6348C13.2454 15.9268 13.7262 15.7695 14.0771 15.4551C14.4326 15.1361 14.6104 14.6986 14.6104 14.1426C14.6104 12.944 13.9587 12.3447 12.6553 12.3447H10.4678ZM10.4678 11.292H12.4502C13.0244 11.292 13.4824 11.1484 13.8242 10.8613C14.1706 10.5742 14.3438 10.1846 14.3438 9.69238C14.3438 9.14551 14.1842 8.74902 13.8652 8.50293C13.5462 8.25228 13.0609 8.12695 12.4092 8.12695H10.4678V11.292ZM17.3447 13.2334C17.3447 12.5088 17.486 11.8571 17.7686 11.2783C18.0557 10.6995 18.4521 10.2529 18.958 9.93848C19.4684 9.62402 20.0495 9.4668 20.7012 9.4668C21.7083 9.4668 22.5218 9.81543 23.1416 10.5127C23.766 11.21 24.0781 12.1374 24.0781 13.2949V13.3838C24.0781 14.1038 23.9391 14.751 23.6611 15.3252C23.3877 15.8949 22.9935 16.3392 22.4785 16.6582C21.9681 16.9772 21.3802 17.1367 20.7148 17.1367C19.7122 17.1367 18.8988 16.7881 18.2744 16.0908C17.6546 15.3936 17.3447 14.4707 17.3447 13.3223V13.2334ZM18.6162 13.3838C18.6162 14.2041 18.8053 14.8626 19.1836 15.3594C19.5664 15.8561 20.0768 16.1045 20.7148 16.1045C21.3574 16.1045 21.8678 15.8538 22.2461 15.3525C22.6243 14.8467 22.8135 14.1403 22.8135 13.2334C22.8135 12.4222 22.6198 11.766 22.2324 11.2646C21.8496 10.7588 21.3392 10.5059 20.7012 10.5059C20.0768 10.5059 19.5732 10.7542 19.1904 11.251C18.8076 11.7477 18.6162 12.4587 18.6162 13.3838ZM26.8604 9.60352L26.9014 10.5332C27.4665 9.82227 28.2048 9.4668 29.1162 9.4668C30.6794 9.4668 31.4678 10.3486 31.4814 12.1123V17H30.2168V12.1055C30.2122 11.5723 30.0892 11.1781 29.8477 10.9229C29.6107 10.6676 29.2393 10.54 28.7334 10.54C28.3232 10.54 27.9632 10.6494 27.6533 10.8682C27.3434 11.0869 27.1019 11.374 26.9287 11.7295V17H25.6641V9.60352H26.8604ZM33.8125 17V10.5811H32.6436V9.60352H33.8125V8.97461C33.8125 8.14974 34.0472 7.50716 34.5166 7.04688C34.9906 6.58659 35.6582 6.35645 36.5195 6.35645C37.0299 6.35645 37.6748 6.49544 38.4541 6.77344L38.2422 7.83984C37.6725 7.61198 37.1302 7.49805 36.6152 7.49805C36.0729 7.49805 35.681 7.62109 35.4395 7.86719C35.2025 8.10872 35.084 8.47331 35.084 8.96094V9.60352H36.5947V10.5811H35.084V17H33.8125ZM39.083 17H37.8115V9.60352H39.083V17ZM44.7158 10.7383C44.5244 10.7064 44.3171 10.6904 44.0938 10.6904C43.2643 10.6904 42.7015 11.0436 42.4053 11.75V17H41.1406V9.60352H42.3711L42.3916 10.458C42.8063 9.7972 43.3942 9.4668 44.1553 9.4668C44.4014 9.4668 44.5882 9.4987 44.7158 9.5625V10.7383ZM48.8174 17.1367C47.8148 17.1367 46.999 16.8086 46.3701 16.1523C45.7412 15.4915 45.4268 14.6097 45.4268 13.5068V13.2744C45.4268 12.5407 45.5658 11.8867 45.8438 11.3125C46.1263 10.7337 46.5182 10.2826 47.0195 9.95898C47.5254 9.63086 48.0723 9.4668 48.6602 9.4668C49.6217 9.4668 50.3691 9.78353 50.9023 10.417C51.4355 11.0505 51.7021 11.9574 51.7021 13.1377V13.6641H46.6914C46.7096 14.3932 46.9215 14.9834 47.3271 15.4346C47.7373 15.8812 48.2568 16.1045 48.8857 16.1045C49.3324 16.1045 49.7106 16.0133 50.0205 15.8311C50.3304 15.6488 50.6016 15.4072 50.834 15.1064L51.6064 15.708C50.9867 16.6605 50.057 17.1367 48.8174 17.1367ZM48.6602 10.5059C48.1497 10.5059 47.7214 10.6927 47.375 11.0664C47.0286 11.4355 46.8145 11.9551 46.7324 12.625H50.4375V12.5293C50.401 11.8867 50.2279 11.39 49.918 11.0391C49.6081 10.6836 49.1888 10.5059 48.6602 10.5059ZM60.2676 11.6611H63.043V12.8574H60.2676V16.002H58.9961V12.8574H56.2207V11.6611H58.9961V8.75586H60.2676V11.6611ZM75.5801 13.8418C75.457 14.8945 75.0674 15.708 74.4111 16.2822C73.7594 16.8519 72.8913 17.1367 71.8066 17.1367C70.6309 17.1367 69.6875 16.7152 68.9766 15.8721C68.2702 15.029 67.917 13.901 67.917 12.4883V11.5312C67.917 10.6061 68.0811 9.79264 68.4092 9.09082C68.7419 8.389 69.2113 7.85124 69.8174 7.47754C70.4235 7.09928 71.1253 6.91016 71.9229 6.91016C72.9801 6.91016 73.8278 7.20638 74.4658 7.79883C75.1038 8.38672 75.4753 9.20247 75.5801 10.2461H74.2607C74.1468 9.45312 73.8984 8.87891 73.5156 8.52344C73.1374 8.16797 72.6064 7.99023 71.9229 7.99023C71.0843 7.99023 70.4258 8.30013 69.9473 8.91992C69.4733 9.53971 69.2363 10.4215 69.2363 11.5654V12.5293C69.2363 13.6094 69.4619 14.4684 69.9131 15.1064C70.3643 15.7445 70.9954 16.0635 71.8066 16.0635C72.5358 16.0635 73.0941 15.8994 73.4814 15.5713C73.8734 15.2386 74.1331 14.6621 74.2607 13.8418H75.5801ZM78.5537 17H77.2891V6.5H78.5537V17ZM85.1504 17C85.0775 16.8542 85.0182 16.5944 84.9727 16.2207C84.3848 16.8314 83.6829 17.1367 82.8672 17.1367C82.138 17.1367 81.5387 16.9316 81.0693 16.5215C80.6045 16.1068 80.3721 15.5827 80.3721 14.9492C80.3721 14.179 80.6637 13.582 81.2471 13.1582C81.835 12.7298 82.6598 12.5156 83.7217 12.5156H84.9521V11.9346C84.9521 11.4925 84.82 11.1416 84.5557 10.8818C84.2913 10.6175 83.9017 10.4854 83.3867 10.4854C82.9355 10.4854 82.5573 10.5993 82.252 10.8271C81.9466 11.055 81.7939 11.3307 81.7939 11.6543H80.5225C80.5225 11.2852 80.6523 10.9297 80.9121 10.5879C81.1764 10.2415 81.5319 9.9681 81.9785 9.76758C82.4297 9.56706 82.9242 9.4668 83.4619 9.4668C84.3141 9.4668 84.9818 9.68099 85.4648 10.1094C85.9479 10.5332 86.1986 11.1188 86.2168 11.8662V15.2705C86.2168 15.9495 86.3034 16.4896 86.4766 16.8906V17H85.1504ZM83.0518 16.0361C83.4482 16.0361 83.8242 15.9336 84.1797 15.7285C84.5352 15.5234 84.7926 15.2568 84.9521 14.9287V13.4111H83.9609C82.4115 13.4111 81.6367 13.8646 81.6367 14.7715C81.6367 15.168 81.7689 15.4779 82.0332 15.7012C82.2975 15.9245 82.637 16.0361 83.0518 16.0361ZM92.5059 15.0381C92.5059 14.6963 92.376 14.432 92.1162 14.2451C91.861 14.0537 91.4121 13.8896 90.7695 13.7529C90.1315 13.6162 89.6234 13.4521 89.2451 13.2607C88.8714 13.0693 88.5934 12.8415 88.4111 12.5771C88.2334 12.3128 88.1445 11.9984 88.1445 11.6338C88.1445 11.0277 88.3997 10.515 88.9102 10.0957C89.4251 9.67643 90.0814 9.4668 90.8789 9.4668C91.7174 9.4668 92.3965 9.68327 92.916 10.1162C93.4401 10.5492 93.7021 11.1029 93.7021 11.7773H92.4307C92.4307 11.431 92.2826 11.1325 91.9863 10.8818C91.6947 10.6312 91.3255 10.5059 90.8789 10.5059C90.4186 10.5059 90.0586 10.6061 89.7988 10.8066C89.5391 11.0072 89.4092 11.2692 89.4092 11.5928C89.4092 11.8981 89.5299 12.1283 89.7715 12.2832C90.013 12.4382 90.4482 12.5863 91.0771 12.7275C91.7106 12.8688 92.2233 13.0374 92.6152 13.2334C93.0072 13.4294 93.2965 13.6663 93.4834 13.9443C93.6748 14.2178 93.7705 14.5527 93.7705 14.9492C93.7705 15.61 93.5062 16.141 92.9775 16.542C92.4489 16.9385 91.763 17.1367 90.9199 17.1367C90.3275 17.1367 89.8034 17.0319 89.3477 16.8223C88.8919 16.6126 88.5342 16.321 88.2744 15.9473C88.0192 15.569 87.8916 15.1611 87.8916 14.7236H89.1562C89.179 15.1475 89.3477 15.4847 89.6621 15.7354C89.9811 15.9814 90.4004 16.1045 90.9199 16.1045C91.3984 16.1045 91.7812 16.0088 92.0684 15.8174C92.36 15.6214 92.5059 15.3617 92.5059 15.0381ZM99.7246 15.0381C99.7246 14.6963 99.5947 14.432 99.335 14.2451C99.0798 14.0537 98.6309 13.8896 97.9883 13.7529C97.3503 13.6162 96.8421 13.4521 96.4639 13.2607C96.0902 13.0693 95.8122 12.8415 95.6299 12.5771C95.4521 12.3128 95.3633 11.9984 95.3633 11.6338C95.3633 11.0277 95.6185 10.515 96.1289 10.0957C96.6439 9.67643 97.3001 9.4668 98.0977 9.4668C98.9362 9.4668 99.6152 9.68327 100.135 10.1162C100.659 10.5492 100.921 11.1029 100.921 11.7773H99.6494C99.6494 11.431 99.5013 11.1325 99.2051 10.8818C98.9134 10.6312 98.5443 10.5059 98.0977 10.5059C97.6374 10.5059 97.2773 10.6061 97.0176 10.8066C96.7578 11.0072 96.6279 11.2692 96.6279 11.5928C96.6279 11.8981 96.7487 12.1283 96.9902 12.2832C97.2318 12.4382 97.667 12.5863 98.2959 12.7275C98.9294 12.8688 99.4421 13.0374 99.834 13.2334C100.226 13.4294 100.515 13.6663 100.702 13.9443C100.894 14.2178 100.989 14.5527 100.989 14.9492C100.989 15.61 100.725 16.141 100.196 16.542C99.6676 16.9385 98.9818 17.1367 98.1387 17.1367C97.5462 17.1367 97.0221 17.0319 96.5664 16.8223C96.1107 16.6126 95.7529 16.321 95.4932 15.9473C95.238 15.569 95.1104 15.1611 95.1104 14.7236H96.375C96.3978 15.1475 96.5664 15.4847 96.8809 15.7354C97.1999 15.9814 97.6191 16.1045 98.1387 16.1045C98.6172 16.1045 99 16.0088 99.2871 15.8174C99.5788 15.6214 99.7246 15.3617 99.7246 15.0381ZM105.057 15.1475L106.779 9.60352H108.133L105.159 18.1416C104.699 19.3721 103.967 19.9873 102.965 19.9873L102.726 19.9668L102.254 19.8779V18.8525L102.596 18.8799C103.024 18.8799 103.357 18.7933 103.594 18.6201C103.835 18.4469 104.034 18.1302 104.188 17.6699L104.469 16.918L101.83 9.60352H103.211L105.057 15.1475ZM114.114 17H112.85V9.60352H114.114V17ZM112.747 7.6416C112.747 7.43652 112.809 7.26335 112.932 7.12207C113.059 6.98079 113.246 6.91016 113.492 6.91016C113.738 6.91016 113.925 6.98079 114.053 7.12207C114.18 7.26335 114.244 7.43652 114.244 7.6416C114.244 7.84668 114.18 8.01758 114.053 8.1543C113.925 8.29102 113.738 8.35938 113.492 8.35938C113.246 8.35938 113.059 8.29102 112.932 8.1543C112.809 8.01758 112.747 7.84668 112.747 7.6416ZM117.341 9.60352L117.382 10.5332C117.947 9.82227 118.685 9.4668 119.597 9.4668C121.16 9.4668 121.948 10.3486 121.962 12.1123V17H120.697V12.1055C120.693 11.5723 120.57 11.1781 120.328 10.9229C120.091 10.6676 119.72 10.54 119.214 10.54C118.804 10.54 118.444 10.6494 118.134 10.8682C117.824 11.0869 117.582 11.374 117.409 11.7295V17H116.145V9.60352H117.341ZM125.585 7.8125V9.60352H126.966V10.5811H125.585V15.168C125.585 15.4642 125.646 15.6875 125.77 15.8379C125.893 15.9837 126.102 16.0566 126.398 16.0566C126.544 16.0566 126.745 16.0293 127 15.9746V17C126.667 17.0911 126.344 17.1367 126.029 17.1367C125.464 17.1367 125.038 16.9658 124.751 16.624C124.464 16.2822 124.32 15.7969 124.32 15.168V10.5811H122.974V9.60352H124.32V7.8125H125.585ZM131.519 17.1367C130.516 17.1367 129.7 16.8086 129.071 16.1523C128.442 15.4915 128.128 14.6097 128.128 13.5068V13.2744C128.128 12.5407 128.267 11.8867 128.545 11.3125C128.827 10.7337 129.219 10.2826 129.721 9.95898C130.227 9.63086 130.773 9.4668 131.361 9.4668C132.323 9.4668 133.07 9.78353 133.604 10.417C134.137 11.0505 134.403 11.9574 134.403 13.1377V13.6641H129.393C129.411 14.3932 129.623 14.9834 130.028 15.4346C130.438 15.8812 130.958 16.1045 131.587 16.1045C132.034 16.1045 132.412 16.0133 132.722 15.8311C133.032 15.6488 133.303 15.4072 133.535 15.1064L134.308 15.708C133.688 16.6605 132.758 17.1367 131.519 17.1367ZM131.361 10.5059C130.851 10.5059 130.423 10.6927 130.076 11.0664C129.73 11.4355 129.516 11.9551 129.434 12.625H133.139V12.5293C133.102 11.8867 132.929 11.39 132.619 11.0391C132.309 10.6836 131.89 10.5059 131.361 10.5059ZM135.572 13.2402C135.572 12.0872 135.839 11.1712 136.372 10.4922C136.905 9.80859 137.612 9.4668 138.491 9.4668C139.394 9.4668 140.098 9.78581 140.604 10.4238L140.665 9.60352H141.82V16.8223C141.82 17.7793 141.535 18.5335 140.966 19.085C140.401 19.6364 139.64 19.9121 138.683 19.9121C138.149 19.9121 137.628 19.7982 137.117 19.5703C136.607 19.3424 136.217 19.0303 135.948 18.6338L136.604 17.875C137.147 18.5449 137.81 18.8799 138.594 18.8799C139.209 18.8799 139.688 18.7067 140.029 18.3604C140.376 18.014 140.549 17.5264 140.549 16.8975V16.2617C140.043 16.8451 139.353 17.1367 138.478 17.1367C137.612 17.1367 136.91 16.7881 136.372 16.0908C135.839 15.3936 135.572 14.4434 135.572 13.2402ZM136.844 13.3838C136.844 14.2178 137.015 14.874 137.356 15.3525C137.698 15.8265 138.177 16.0635 138.792 16.0635C139.59 16.0635 140.175 15.7012 140.549 14.9766V11.5996C140.161 10.8932 139.58 10.54 138.806 10.54C138.19 10.54 137.71 10.7793 137.363 11.2578C137.017 11.7363 136.844 12.445 136.844 13.3838ZM147.31 10.7383C147.118 10.7064 146.911 10.6904 146.688 10.6904C145.858 10.6904 145.295 11.0436 144.999 11.75V17H143.734V9.60352H144.965L144.985 10.458C145.4 9.7972 145.988 9.4668 146.749 9.4668C146.995 9.4668 147.182 9.4987 147.31 9.5625V10.7383ZM152.771 17C152.699 16.8542 152.639 16.5944 152.594 16.2207C152.006 16.8314 151.304 17.1367 150.488 17.1367C149.759 17.1367 149.16 16.9316 148.69 16.5215C148.226 16.1068 147.993 15.5827 147.993 14.9492C147.993 14.179 148.285 13.582 148.868 13.1582C149.456 12.7298 150.281 12.5156 151.343 12.5156H152.573V11.9346C152.573 11.4925 152.441 11.1416 152.177 10.8818C151.912 10.6175 151.523 10.4854 151.008 10.4854C150.557 10.4854 150.178 10.5993 149.873 10.8271C149.568 11.055 149.415 11.3307 149.415 11.6543H148.144C148.144 11.2852 148.273 10.9297 148.533 10.5879C148.798 10.2415 149.153 9.9681 149.6 9.76758C150.051 9.56706 150.545 9.4668 151.083 9.4668C151.935 9.4668 152.603 9.68099 153.086 10.1094C153.569 10.5332 153.82 11.1188 153.838 11.8662V15.2705C153.838 15.9495 153.924 16.4896 154.098 16.8906V17H152.771ZM150.673 16.0361C151.069 16.0361 151.445 15.9336 151.801 15.7285C152.156 15.5234 152.414 15.2568 152.573 14.9287V13.4111H151.582C150.033 13.4111 149.258 13.8646 149.258 14.7715C149.258 15.168 149.39 15.4779 149.654 15.7012C149.919 15.9245 150.258 16.0361 150.673 16.0361ZM157.536 7.8125V9.60352H158.917V10.5811H157.536V15.168C157.536 15.4642 157.598 15.6875 157.721 15.8379C157.844 15.9837 158.053 16.0566 158.35 16.0566C158.495 16.0566 158.696 16.0293 158.951 15.9746V17C158.618 17.0911 158.295 17.1367 157.98 17.1367C157.415 17.1367 156.989 16.9658 156.702 16.624C156.415 16.2822 156.271 15.7969 156.271 15.168V10.5811H154.925V9.60352H156.271V7.8125H157.536ZM161.774 17H160.51V9.60352H161.774V17ZM160.407 7.6416C160.407 7.43652 160.469 7.26335 160.592 7.12207C160.719 6.98079 160.906 6.91016 161.152 6.91016C161.398 6.91016 161.585 6.98079 161.713 7.12207C161.84 7.26335 161.904 7.43652 161.904 7.6416C161.904 7.84668 161.84 8.01758 161.713 8.1543C161.585 8.29102 161.398 8.35938 161.152 8.35938C160.906 8.35938 160.719 8.29102 160.592 8.1543C160.469 8.01758 160.407 7.84668 160.407 7.6416ZM163.47 13.2334C163.47 12.5088 163.611 11.8571 163.894 11.2783C164.181 10.6995 164.577 10.2529 165.083 9.93848C165.593 9.62402 166.174 9.4668 166.826 9.4668C167.833 9.4668 168.647 9.81543 169.267 10.5127C169.891 11.21 170.203 12.1374 170.203 13.2949V13.3838C170.203 14.1038 170.064 14.751 169.786 15.3252C169.513 15.8949 169.118 16.3392 168.604 16.6582C168.093 16.9772 167.505 17.1367 166.84 17.1367C165.837 17.1367 165.024 16.7881 164.399 16.0908C163.78 15.3936 163.47 14.4707 163.47 13.3223V13.2334ZM164.741 13.3838C164.741 14.2041 164.93 14.8626 165.309 15.3594C165.691 15.8561 166.202 16.1045 166.84 16.1045C167.482 16.1045 167.993 15.8538 168.371 15.3525C168.749 14.8467 168.938 14.1403 168.938 13.2334C168.938 12.4222 168.745 11.766 168.357 11.2646C167.975 10.7588 167.464 10.5059 166.826 10.5059C166.202 10.5059 165.698 10.7542 165.315 11.251C164.933 11.7477 164.741 12.4587 164.741 13.3838ZM172.985 9.60352L173.026 10.5332C173.591 9.82227 174.33 9.4668 175.241 9.4668C176.804 9.4668 177.593 10.3486 177.606 12.1123V17H176.342V12.1055C176.337 11.5723 176.214 11.1781 175.973 10.9229C175.736 10.6676 175.364 10.54 174.858 10.54C174.448 10.54 174.088 10.6494 173.778 10.8682C173.468 11.0869 173.227 11.374 173.054 11.7295V17H171.789V9.60352H172.985Z" fill="white"/>
<path d="M215 16.1803L191 24V7.82951L215 0V16.1803Z" fill="#F59979"/>
<path d="M197.935 16.6427L195.404 13.6919V17.4297L194.282 17.7936V11.8231L195.233 11.4985L197.782 14.4493V10.7018L198.905 10.3379V16.3182L197.935 16.6427Z" fill="#3D4853"/>
<path d="M200.18 15.9148V9.94432L203.709 8.79346V9.77706L201.302 10.564V11.9115L203.709 11.1246V12.1082L201.302 12.8951V14.4197L203.709 13.6328V14.6165L200.18 15.9148Z" fill="#3D4853"/>
<path d="M209.521 10.7113L210.472 6.58992L211.728 6.17676L210.149 12.6687L209.036 13.0326L208.037 9.43255L207.01 13.6915L205.935 14.0456L204.394 8.57682L205.649 8.16366L206.6 11.6949L207.552 7.55383L208.608 7.20959L209.521 10.7113Z" fill="#3D4853"/>
</svg>
