<svg width="795" height="400" viewBox="0 0 795 400" fill="none" xmlns="http://www.w3.org/2000/svg">
<path d="M752.428 364.093V362.832L749.837 361.958V358.16L752.428 357.287V356.026L742.726 359.477V360.642L752.428 364.093ZM748.672 358.562V361.556L744.306 360.059L748.672 358.562ZM752.428 354.679V352.226C752.428 350.909 752.013 349.869 751.195 349.093C750.377 348.303 749.171 347.915 747.577 347.915C745.983 347.915 744.777 348.303 743.96 349.093C743.142 349.869 742.726 350.909 742.726 352.226V354.679H752.428ZM743.89 352.35C743.89 350.313 744.971 349.218 747.577 349.218C750.183 349.218 751.264 350.313 751.264 352.35V353.459H743.89V352.35ZM752.428 346.237V345.017H745.318L749.642 343.326V342.411L745.318 340.72H752.428V339.5H742.726V340.803L748.104 342.868L742.726 344.934V346.237H752.428ZM751.375 331.32V333.662H743.779V331.32H742.726V337.225H743.779V334.882H751.375V337.225H752.428V331.32H751.375ZM743.89 326.286H752.428V325.066H743.89V322.045H742.726V329.308H743.89V326.286ZM743.904 311.202C744.75 311.909 745.983 312.255 747.577 312.255C749.171 312.255 750.405 311.909 751.264 311.202C752.11 310.495 752.539 309.594 752.539 308.485C752.539 307.376 752.11 306.475 751.264 305.768C750.405 305.061 749.171 304.715 747.577 304.715C745.983 304.715 744.75 305.061 743.904 305.768C743.045 306.475 742.615 307.376 742.615 308.485C742.615 309.594 743.045 310.495 743.904 311.202ZM744.708 306.655C745.318 306.198 746.274 305.976 747.577 305.976C748.88 305.976 749.837 306.198 750.46 306.655C751.07 307.113 751.375 307.723 751.375 308.485C751.375 309.248 751.07 309.857 750.46 310.315C749.837 310.772 748.88 310.994 747.577 310.994C746.274 310.994 745.318 310.772 744.708 310.315C744.084 309.857 743.779 309.248 743.779 308.485C743.779 307.723 744.084 307.113 744.708 306.655ZM750.211 297.811L742.726 301.872V303.203H752.428V301.983H744.944L752.428 297.922V296.591H742.726V297.811H750.211ZM752.428 294.33V288.037H751.264V293.11H747.841V288.868H746.676V293.11H743.89V288.175H742.726V294.33H752.428Z" fill="#797979"/>
<path d="M752.428 120.529V119.267L749.837 118.394V114.596L752.428 113.723V112.461L742.726 115.913V117.077L752.428 120.529ZM748.672 114.998V117.992L744.306 116.495L748.672 114.998ZM752.428 111.115V108.661C752.428 107.345 752.013 106.305 751.195 105.529C750.377 104.739 749.171 104.35 747.577 104.35C745.983 104.35 744.777 104.739 743.96 105.529C743.142 106.305 742.726 107.345 742.726 108.661V111.115H752.428ZM743.89 108.786C743.89 106.749 744.971 105.653 747.577 105.653C750.183 105.653 751.264 106.749 751.264 108.786V109.895H743.89V108.786ZM752.428 102.672V101.452H745.318L749.642 99.7614V98.8462L745.318 97.1551H752.428V95.9353H742.726V97.2383L748.104 99.3039L742.726 101.369V102.672H752.428ZM751.375 87.7555V90.0981H743.779V87.7555H742.726V93.6605H743.779V91.3179H751.375V93.6605H752.428V87.7555H751.375ZM743.89 82.7222H752.428V81.5024H743.89V78.4806H742.726V85.744H743.89V82.7222ZM743.904 67.6378C744.75 68.3447 745.983 68.6913 747.577 68.6913C749.171 68.6913 750.405 68.3447 751.264 67.6378C752.11 66.9309 752.539 66.0299 752.539 64.921C752.539 63.8121 752.11 62.9111 751.264 62.2041C750.405 61.4972 749.171 61.1507 747.577 61.1507C745.983 61.1507 744.75 61.4972 743.904 62.2041C743.045 62.9111 742.615 63.8121 742.615 64.921C742.615 66.0299 743.045 66.9309 743.904 67.6378ZM744.708 63.0913C745.318 62.6338 746.274 62.4121 747.577 62.4121C748.88 62.4121 749.837 62.6338 750.46 63.0913C751.07 63.5487 751.375 64.1586 751.375 64.921C751.375 65.6834 751.07 66.2933 750.46 66.7507C749.837 67.2081 748.88 67.4299 747.577 67.4299C746.274 67.4299 745.318 67.2081 744.708 66.7507C744.084 66.2933 743.779 65.6834 743.779 64.921C743.779 64.1586 744.084 63.5487 744.708 63.0913ZM750.211 54.246L742.726 58.3074V59.6381H752.428V58.4183H744.944L752.428 54.3569V53.0262H742.726V54.246H750.211ZM752.428 50.7652V44.4722H751.264V49.5454H747.841V45.3039H746.676V49.5454H743.89V44.6108H742.726V50.7652H752.428Z" fill="#797979"/>
<mask id="mask0" mask-type="alpha" maskUnits="userSpaceOnUse" x="0" y="0" width="795" height="400">
<path d="M795 0H0V400H795V0Z" fill="white"/>
<path fill-rule="evenodd" clip-rule="evenodd" d="M19.8007 3.96045C11.0522 3.96045 3.96014 11.0529 3.96014 19.802V380.198C3.96014 388.948 11.0523 396.04 19.8007 396.04H775.199C783.948 396.04 791.04 388.948 791.04 380.198V235.644C771.356 235.644 755.398 219.685 755.398 200C755.398 180.315 771.356 164.357 791.04 164.357V19.802C791.04 11.0529 783.948 3.96045 775.199 3.96045H19.8007Z" fill="black"/>
</mask>
<g mask="url(#mask0)">
<path d="M791.04 235.644H795V231.683H791.04V235.644ZM791.04 164.356V168.317H795V164.356H791.04ZM7.9203 19.802C7.9203 13.2402 13.2394 7.92079 19.8007 7.92079V0C8.8651 0 0 8.86564 0 19.802H7.9203ZM7.9203 380.198V19.802H0V380.198H7.9203ZM19.8007 392.079C13.2394 392.079 7.9203 386.759 7.9203 380.198H0C0 391.135 8.86512 400 19.8007 400V392.079ZM775.199 392.079H19.8007V400H775.199V392.079ZM787.08 380.198C787.08 386.759 781.76 392.079 775.199 392.079V400C786.135 400 795 391.135 795 380.198H787.08ZM787.08 235.644V380.198H795V235.644H787.08ZM791.04 231.683C773.543 231.683 759.359 217.498 759.359 200H751.438C751.438 221.872 769.169 239.604 791.04 239.604V231.683ZM759.359 200C759.359 182.502 773.543 168.317 791.04 168.317V160.396C769.169 160.396 751.438 178.128 751.438 200H759.359ZM787.08 19.802V164.356H795V19.802H787.08ZM775.199 7.92079C781.76 7.92079 787.08 13.2402 787.08 19.802H795C795 8.86564 786.135 0 775.199 0V7.92079ZM19.8007 7.92079H775.199V0H19.8007V7.92079Z" fill="url(#paint0_radial)"/>
<path d="M58.927 162.527L59.6399 175.572C62.6337 177.141 69.1205 180.135 75.2508 179.921C85.8006 179.921 92.715 170.582 92.715 154.614V131.517L92.9289 129.806H68.8353V130.234L85.9432 131.945V154.614C85.9432 168.444 84.9452 179.208 74.6805 179.065C68.5502 178.994 63.703 171.01 58.927 162.527ZM117.719 142.852C107.669 142.852 97.9031 151.691 97.8318 161.814C97.618 172.079 107.027 180.277 117.007 180.277C127.129 180.277 136.752 172.079 136.894 161.814C137.037 151.691 127.77 142.852 117.719 142.852ZM118.432 178.852C111.518 178.852 104.96 172.721 104.176 161.814C103.249 150.194 109.094 143.992 116.08 143.992C122.994 143.992 130.051 149.339 130.336 161.814C130.408 173.434 125.489 178.852 118.432 178.852ZM142.463 133.014C142.463 135.081 144.103 136.721 146.17 136.721C148.237 136.721 149.948 135.081 149.948 133.014C149.948 130.947 148.237 129.236 146.17 129.236C144.103 129.236 142.463 130.947 142.463 133.014ZM148.95 174.931V143.564H143.105V174.931L142.82 179.208H149.235L148.95 174.931ZM162.964 179.208H157.19V143.564H163.178L163.107 150.408C173.015 138.646 191.548 140.57 191.691 154.614V179.208H185.917V155.897C185.917 142.923 172.445 140.998 163.107 151.406L162.964 179.208ZM245.478 168.657H244.836C237.779 179.778 225.661 180.919 225.732 172.222L225.946 147.699H237.138L240.702 143.564H225.946V134.939L215.539 147.699H220.172V170.155C220.172 182.131 236.853 184.412 245.478 168.657ZM246.978 129.806V179.208H252.823V151.477C262.09 140.927 275.705 142.923 275.705 155.897V179.208H281.407V154.614C281.407 140.499 262.66 138.646 252.823 150.408V124.531L246.978 129.806ZM324.457 168.23H324.029C320.679 174.432 314.05 177.355 309.915 177.355C296.585 177.355 290.669 163.953 292.522 154.543H313.194C315.618 154.471 321.392 153.972 321.392 149.41C321.392 148.84 321.249 144.919 314.834 143.422C308.989 142.067 304.997 142.709 303.072 143.137C291.596 146.131 287.604 156.824 287.604 156.824C283.897 166.59 290.954 180.206 304.141 180.206C308.276 180.206 312.624 179.351 317.258 176.356C323.174 172.863 324.457 168.23 324.457 168.23ZM295.231 148.84C298.439 144.919 306.779 142.78 312.054 146.131C315.19 148.127 316.972 152.475 312.054 152.832L308.347 153.046L292.736 153.545C293.235 151.691 294.091 150.123 295.231 148.84Z" fill="url(#paint1_radial)"/>
<path d="M164.98 233.521V227.105C156.355 222.115 150.438 223.754 147.729 224.325C136.253 227.319 132.546 238.012 132.546 238.012C128.839 247.778 135.611 261.394 148.799 261.394C153.147 261.394 157.852 260.539 162.627 257.545C168.615 254.051 169.898 249.418 169.898 249.418H169.756C166.334 255.62 159.348 258.471 155.143 258.471C138.463 258.471 132.404 237.869 140.459 229.315C145.52 223.113 158.493 228.103 164.98 233.521ZM179.901 202.939L174.056 208.143V254.123C174.341 259.754 177.049 260.396 184.178 260.396C181.469 259.826 180.043 256.404 179.901 249.56C179.544 234.02 179.544 218.479 179.901 202.939ZM188.06 246.923L187.988 224.752H193.905V245.64C193.905 258.828 208.589 265.386 217.214 251.057V249.489L217.357 224.752H223.131V249.56C223.131 256.76 224.699 259.897 227.408 260.467C219.068 260.467 217.499 257.188 217.214 252.269C208.161 267.881 188.131 261.251 188.06 246.923ZM237.366 228.388V203.01L231.593 207.929V261.394C231.593 261.394 236.582 251.77 236.582 254.55C236.582 261.394 247.56 261.394 247.56 261.394C259.464 261.394 267.305 247.208 267.305 247.208C275.218 230.741 254.617 215.414 237.366 228.388ZM237.58 253.909L237.366 229.529C263.812 209.711 272.224 260.253 247.56 260.253C242.356 260.253 237.58 258.543 237.58 253.909Z" fill="url(#paint2_radial)"/>
<path d="M704.907 27.7228V378.218" stroke="#545454" stroke-width="2" stroke-dasharray="4 4"/>
<path d="M65.192 339.208C65.192 340.887 65.6593 342.25 66.5939 343.295C67.5285 344.325 68.8036 344.84 70.4194 344.84C71.7183 344.84 72.8984 344.38 73.9597 343.461L75.8606 345.933C74.229 347.184 72.3678 347.81 70.2768 347.81C67.7581 347.81 65.6751 347.01 64.0277 345.41C62.3803 343.794 61.5565 341.727 61.5565 339.208C61.5565 336.784 62.4199 334.749 64.1465 333.101C65.8731 331.438 67.9641 330.606 70.4194 330.606C72.0985 330.606 73.8013 331.145 75.528 332.222L73.8885 334.859C72.7638 334.004 71.6074 333.576 70.4194 333.576C68.9145 333.576 67.6631 334.123 66.6651 335.216C65.683 336.293 65.192 337.624 65.192 339.208ZM89.4709 347.525H86.5484L86.287 345.814C85.3365 347.145 84.0455 347.81 82.414 347.81C81.0517 347.81 79.9428 347.263 79.0874 346.17C78.3429 345.204 77.9707 343.652 77.9707 341.513V335.026H81.3447V341.347C81.3447 342.63 81.4715 343.525 81.7249 344.032C82.0259 344.618 82.5803 344.911 83.3882 344.911C83.8951 344.911 84.394 344.768 84.8851 344.483C85.392 344.198 85.7959 343.81 86.0969 343.319V335.026H89.4709V347.525ZM101.403 336.38L99.5492 338.424C98.7575 337.727 97.9338 337.378 97.0784 337.378C96.7457 337.378 96.4606 337.465 96.223 337.64C95.9854 337.814 95.8666 338.044 95.8666 338.329C95.8666 338.677 96.025 338.97 96.3418 339.208C96.6745 339.43 97.1734 339.675 97.8387 339.945C98.2981 340.135 98.6387 340.285 98.8605 340.396C99.0819 340.491 99.3908 340.657 99.7868 340.895C100.199 341.133 100.5 341.37 100.69 341.608C100.896 341.846 101.078 342.154 101.236 342.535C101.41 342.915 101.498 343.335 101.498 343.794C101.498 345.093 101.022 346.091 100.072 346.788C99.1374 347.469 98.013 347.81 96.6982 347.81C94.7657 347.81 93.0866 347.097 91.6609 345.671L93.5855 343.675C94.1083 344.182 94.5835 344.554 95.0112 344.792C95.4547 345.03 95.9616 345.149 96.5319 345.149C96.9279 345.149 97.2922 345.053 97.6249 344.863C97.9576 344.673 98.1239 344.404 98.1239 344.055C98.1239 343.96 98.108 343.873 98.0764 343.794C98.0605 343.699 98.0209 343.612 97.9575 343.533C97.8942 343.453 97.8308 343.382 97.7675 343.319C97.7199 343.255 97.6407 343.192 97.5299 343.129C97.419 343.05 97.3239 342.986 97.2447 342.939C97.1655 342.891 97.0467 342.836 96.8883 342.772C96.7457 342.693 96.6269 342.638 96.5319 342.606C96.4527 342.558 96.326 342.503 96.1517 342.44C95.9775 342.36 95.8428 342.297 95.7478 342.25C94.7815 341.838 94.0132 341.37 93.443 340.848C92.8886 340.309 92.6113 339.549 92.6113 338.566C92.6113 337.362 93.047 336.428 93.9182 335.762C94.8053 335.081 95.8587 334.741 97.0784 334.741C98.805 334.741 100.246 335.287 101.403 336.38ZM110.894 337.83H107.71V342.677C107.71 343.152 107.726 343.509 107.758 343.747C107.853 344.539 108.217 344.935 108.851 344.935C109.278 344.935 109.73 344.816 110.205 344.578L111.25 347.073C110.411 347.564 109.421 347.81 108.28 347.81C107.33 347.81 106.53 347.572 105.881 347.097C105.247 346.606 104.811 345.949 104.574 345.125C104.415 344.618 104.336 343.921 104.336 343.034V337.83H102.839V335.026H104.336L104.859 332.269H107.71V335.026H110.894V337.83ZM118.876 334.741C120.761 334.741 122.321 335.366 123.557 336.618C124.792 337.869 125.41 339.422 125.41 341.275C125.41 343.129 124.792 344.681 123.557 345.933C122.321 347.184 120.761 347.81 118.876 347.81C116.975 347.81 115.407 347.184 114.171 345.933C112.936 344.681 112.318 343.129 112.318 341.275C112.318 339.422 112.936 337.869 114.171 336.618C115.407 335.366 116.975 334.741 118.876 334.741ZM121.109 343.889C121.68 343.192 121.965 342.321 121.965 341.275C121.965 340.23 121.68 339.366 121.109 338.685C120.539 337.988 119.795 337.64 118.876 337.64C117.957 337.64 117.205 337.988 116.618 338.685C116.048 339.382 115.763 340.246 115.763 341.275C115.763 342.305 116.048 343.168 116.618 343.865C117.205 344.562 117.957 344.911 118.876 344.911C119.795 344.911 120.539 344.57 121.109 343.889ZM146.705 347.525H143.331V341.204C143.331 339.921 143.204 339.026 142.951 338.519C142.65 337.933 142.095 337.64 141.287 337.64C140.305 337.64 139.489 338.115 138.84 339.065C138.919 339.747 138.959 340.404 138.959 341.038V347.525H135.585V341.204C135.585 339.873 135.458 338.97 135.204 338.495C134.903 337.925 134.373 337.64 133.612 337.64C132.725 337.64 131.925 338.052 131.213 338.875V347.525H127.839V335.026H130.761L130.999 336.547C131.949 335.343 133.153 334.741 134.61 334.741C135.323 334.741 136.012 334.939 136.678 335.335C137.343 335.715 137.834 336.214 138.151 336.832C139.133 335.438 140.519 334.741 142.309 334.741C143.655 334.741 144.748 335.279 145.588 336.356C146.332 337.323 146.705 338.883 146.705 341.038V347.525ZM164.471 336.38L162.618 338.424C161.826 337.727 161.002 337.378 160.146 337.378C159.814 337.378 159.529 337.465 159.291 337.64C159.053 337.814 158.935 338.044 158.935 338.329C158.935 338.677 159.093 338.97 159.41 339.208C159.743 339.43 160.241 339.675 160.907 339.945C161.366 340.135 161.707 340.285 161.929 340.396C162.15 340.491 162.459 340.657 162.855 340.895C163.267 341.133 163.568 341.37 163.758 341.608C163.964 341.846 164.146 342.154 164.305 342.535C164.479 342.915 164.566 343.335 164.566 343.794C164.566 345.093 164.091 346.091 163.14 346.788C162.206 347.469 161.081 347.81 159.766 347.81C157.834 347.81 156.155 347.097 154.729 345.671L156.654 343.675C157.176 344.182 157.652 344.554 158.079 344.792C158.523 345.03 159.03 345.149 159.6 345.149C159.996 345.149 160.36 345.053 160.693 344.863C161.026 344.673 161.192 344.404 161.192 344.055C161.192 343.96 161.176 343.873 161.144 343.794C161.129 343.699 161.089 343.612 161.026 343.533C160.962 343.453 160.899 343.382 160.836 343.319C160.788 343.255 160.709 343.192 160.598 343.129C160.487 343.05 160.392 342.986 160.313 342.939C160.234 342.891 160.115 342.836 159.956 342.772C159.814 342.693 159.695 342.638 159.6 342.606C159.521 342.558 159.394 342.503 159.22 342.44C159.046 342.36 158.911 342.297 158.816 342.25C157.85 341.838 157.081 341.37 156.511 340.848C155.957 340.309 155.679 339.549 155.679 338.566C155.679 337.362 156.115 336.428 156.986 335.762C157.873 335.081 158.927 334.741 160.146 334.741C161.873 334.741 163.315 335.287 164.471 336.38ZM173.962 337.83H170.778V342.677C170.778 343.152 170.794 343.509 170.826 343.747C170.921 344.539 171.285 344.935 171.919 344.935C172.347 344.935 172.798 344.816 173.273 344.578L174.319 347.073C173.479 347.564 172.489 347.81 171.349 347.81C170.398 347.81 169.598 347.572 168.949 347.097C168.315 346.606 167.88 345.949 167.642 345.125C167.484 344.618 167.404 343.921 167.404 343.034V337.83H165.907V335.026H167.404L167.927 332.269H170.778V335.026H173.962V337.83ZM181.944 334.741C183.829 334.741 185.389 335.366 186.625 336.618C187.861 337.869 188.478 339.422 188.478 341.275C188.478 343.129 187.861 344.681 186.625 345.933C185.389 347.184 183.829 347.81 181.944 347.81C180.043 347.81 178.475 347.184 177.239 345.933C176.004 344.681 175.386 343.129 175.386 341.275C175.386 339.422 176.004 337.869 177.239 336.618C178.475 335.366 180.043 334.741 181.944 334.741ZM184.178 343.889C184.748 343.192 185.033 342.321 185.033 341.275C185.033 340.23 184.748 339.366 184.178 338.685C183.607 337.988 182.863 337.64 181.944 337.64C181.025 337.64 180.273 337.988 179.687 338.685C179.117 339.382 178.831 340.246 178.831 341.275C178.831 342.305 179.117 343.168 179.687 343.865C180.273 344.562 181.025 344.911 181.944 344.911C182.863 344.911 183.607 344.57 184.178 343.889ZM193.829 335.026L194.091 336.689C194.883 335.39 195.857 334.741 197.013 334.741C197.568 334.741 198.106 334.836 198.629 335.026L197.821 337.972C197.457 337.782 197.061 337.687 196.633 337.687C195.619 337.687 194.835 338.147 194.281 339.065V347.525H190.907V335.026H193.829ZM211.151 342.107H202.36C202.486 342.994 202.819 343.715 203.358 344.269C203.912 344.824 204.625 345.101 205.496 345.101C206.256 345.101 206.882 344.951 207.373 344.65C207.864 344.349 208.324 343.881 208.751 343.248L210.961 344.745C210.232 345.806 209.425 346.582 208.537 347.073C207.666 347.564 206.573 347.81 205.258 347.81C203.373 347.81 201.845 347.216 200.673 346.028C199.516 344.84 198.938 343.303 198.938 341.418C198.938 339.533 199.548 337.949 200.768 336.665C201.987 335.382 203.492 334.741 205.282 334.741C207.025 334.741 208.466 335.287 209.607 336.38C210.747 337.473 211.318 338.852 211.318 340.515C211.318 340.99 211.262 341.521 211.151 342.107ZM202.526 339.802H207.872C207.841 339.057 207.587 338.471 207.112 338.044C206.652 337.6 206.074 337.378 205.377 337.378C203.888 337.378 202.938 338.186 202.526 339.802Z" fill="white"/>
<path d="M278.858 335.382L273.892 347.525H271.468L266.621 335.335V347.525H263.223V330.891H268.237L272.704 342.487L277.337 330.891H282.256V347.525H278.858V335.382ZM297.083 342.107H288.292C288.419 342.994 288.751 343.715 289.29 344.269C289.844 344.824 290.557 345.101 291.428 345.101C292.189 345.101 292.814 344.951 293.305 344.65C293.797 344.349 294.256 343.881 294.684 343.248L296.893 344.745C296.165 345.806 295.357 346.582 294.47 347.073C293.599 347.564 292.506 347.81 291.191 347.81C289.306 347.81 287.777 347.216 286.605 346.028C285.449 344.84 284.87 343.303 284.87 341.418C284.87 339.533 285.48 337.949 286.7 336.665C287.92 335.382 289.425 334.741 291.215 334.741C292.957 334.741 294.399 335.287 295.539 336.38C296.68 337.473 297.25 338.852 297.25 340.515C297.25 340.99 297.194 341.521 297.083 342.107ZM288.458 339.802H293.804C293.773 339.057 293.519 338.471 293.044 338.044C292.585 337.6 292.007 337.378 291.31 337.378C289.821 337.378 288.87 338.186 288.458 339.802ZM302.618 335.026L302.879 336.689C303.671 335.39 304.645 334.741 305.802 334.741C306.356 334.741 306.895 334.836 307.417 335.026L306.61 337.972C306.245 337.782 305.849 337.687 305.422 337.687C304.408 337.687 303.624 338.147 303.069 339.065V347.525H299.695V335.026H302.618ZM316.756 343.96L318.561 346.265C317.405 347.295 315.908 347.81 314.071 347.81C312.217 347.81 310.696 347.208 309.508 346.004C308.32 344.784 307.726 343.208 307.726 341.275C307.726 339.438 308.328 337.893 309.532 336.642C310.752 335.374 312.296 334.741 314.166 334.741C315.845 334.741 317.31 335.255 318.561 336.285L316.827 338.638C316.114 337.972 315.306 337.64 314.403 337.64C313.469 337.64 312.692 337.996 312.075 338.709C311.473 339.406 311.172 340.261 311.172 341.275C311.172 342.321 311.473 343.192 312.075 343.889C312.692 344.57 313.453 344.911 314.356 344.911C315.306 344.911 316.106 344.594 316.756 343.96ZM324.092 329.703V336.499C325.058 335.327 326.286 334.741 327.775 334.741C329.137 334.741 330.246 335.287 331.101 336.38C331.846 337.347 332.218 338.899 332.218 341.038V347.525H328.844V341.204C328.844 339.921 328.717 339.026 328.464 338.519C328.163 337.933 327.608 337.64 326.8 337.64C326.294 337.64 325.787 337.782 325.28 338.067C324.789 338.352 324.393 338.741 324.092 339.232V347.525H320.718V329.703H324.092ZM351.848 347.525H348.926L348.664 346.455C347.936 347.358 346.803 347.81 345.267 347.81C344.031 347.81 342.97 347.453 342.083 346.741C341.211 346.028 340.776 345.061 340.776 343.842C340.776 342.875 341.061 342.075 341.631 341.442C342.201 340.808 342.867 340.38 343.627 340.158C344.403 339.921 345.267 339.802 346.217 339.802C346.898 339.802 347.651 339.889 348.474 340.063V339.873C348.474 338.194 347.651 337.354 346.003 337.354C344.879 337.354 343.619 337.719 342.225 338.448L341.322 336.024C343.065 335.168 344.855 334.741 346.692 334.741C348.387 334.741 349.67 335.208 350.542 336.143C351.413 337.061 351.848 338.352 351.848 340.016V347.525ZM348.474 344.388V342.083C347.825 341.941 347.255 341.869 346.764 341.869C346.035 341.869 345.401 342.028 344.863 342.345C344.34 342.646 344.079 343.129 344.079 343.794C344.079 344.317 344.261 344.729 344.625 345.03C345.005 345.315 345.457 345.457 345.979 345.457C346.851 345.457 347.682 345.101 348.474 344.388ZM363.187 343.96L364.993 346.265C363.837 347.295 362.34 347.81 360.502 347.81C358.649 347.81 357.128 347.208 355.94 346.004C354.752 344.784 354.158 343.208 354.158 341.275C354.158 339.438 354.76 337.893 355.964 336.642C357.184 335.374 358.728 334.741 360.597 334.741C362.276 334.741 363.742 335.255 364.993 336.285L363.259 338.638C362.546 337.972 361.738 337.64 360.835 337.64C359.9 337.64 359.124 337.996 358.506 338.709C357.904 339.406 357.603 340.261 357.603 341.275C357.603 342.321 357.904 343.192 358.506 343.889C359.124 344.57 359.885 344.911 360.787 344.911C361.738 344.911 362.538 344.594 363.187 343.96ZM375.323 343.96L377.129 346.265C375.973 347.295 374.476 347.81 372.638 347.81C370.785 347.81 369.264 347.208 368.076 346.004C366.888 344.784 366.293 343.208 366.293 341.275C366.293 339.438 366.896 337.893 368.1 336.642C369.32 335.374 370.864 334.741 372.733 334.741C374.412 334.741 375.878 335.255 377.129 336.285L375.394 338.638C374.682 337.972 373.874 337.64 372.971 337.64C372.036 337.64 371.26 337.996 370.642 338.709C370.04 339.406 369.739 340.261 369.739 341.275C369.739 342.321 370.04 343.192 370.642 343.889C371.26 344.57 372.02 344.911 372.923 344.911C373.874 344.911 374.674 344.594 375.323 343.96ZM390.642 342.107H381.85C381.977 342.994 382.31 343.715 382.848 344.269C383.403 344.824 384.116 345.101 384.987 345.101C385.747 345.101 386.373 344.951 386.864 344.65C387.355 344.349 387.814 343.881 388.242 343.248L390.452 344.745C389.723 345.806 388.915 346.582 388.028 347.073C387.157 347.564 386.064 347.81 384.749 347.81C382.864 347.81 381.336 347.216 380.163 346.028C379.007 344.84 378.429 343.303 378.429 341.418C378.429 339.533 379.039 337.949 380.258 336.665C381.478 335.382 382.983 334.741 384.773 334.741C386.516 334.741 387.957 335.287 389.098 336.38C390.238 337.473 390.808 338.852 390.808 340.515C390.808 340.99 390.753 341.521 390.642 342.107ZM382.017 339.802H387.363C387.331 339.057 387.078 338.471 386.603 338.044C386.143 337.6 385.565 337.378 384.868 337.378C383.379 337.378 382.429 338.186 382.017 339.802ZM401.903 336.38L400.049 338.424C399.257 337.727 398.434 337.378 397.578 337.378C397.246 337.378 396.96 337.465 396.723 337.64C396.485 337.814 396.366 338.044 396.366 338.329C396.366 338.677 396.525 338.97 396.842 339.208C397.174 339.43 397.673 339.675 398.339 339.945C398.798 340.135 399.139 340.285 399.36 340.396C399.582 340.491 399.891 340.657 400.287 340.895C400.699 341.133 401 341.37 401.19 341.608C401.396 341.846 401.578 342.154 401.736 342.535C401.911 342.915 401.998 343.335 401.998 343.794C401.998 345.093 401.523 346.091 400.572 346.788C399.637 347.469 398.513 347.81 397.198 347.81C395.265 347.81 393.586 347.097 392.161 345.671L394.085 343.675C394.608 344.182 395.083 344.554 395.511 344.792C395.955 345.03 396.461 345.149 397.032 345.149C397.428 345.149 397.792 345.053 398.125 344.863C398.457 344.673 398.624 344.404 398.624 344.055C398.624 343.96 398.608 343.873 398.576 343.794C398.56 343.699 398.521 343.612 398.457 343.533C398.394 343.453 398.331 343.382 398.267 343.319C398.22 343.255 398.141 343.192 398.03 343.129C397.919 343.05 397.824 342.986 397.745 342.939C397.665 342.891 397.547 342.836 397.388 342.772C397.246 342.693 397.127 342.638 397.032 342.606C396.953 342.558 396.826 342.503 396.652 342.44C396.477 342.36 396.343 342.297 396.248 342.25C395.281 341.838 394.513 341.37 393.943 340.848C393.388 340.309 393.111 339.549 393.111 338.566C393.111 337.362 393.547 336.428 394.418 335.762C395.305 335.081 396.359 334.741 397.578 334.741C399.305 334.741 400.746 335.287 401.903 336.38ZM413.342 336.38L411.488 338.424C410.696 337.727 409.872 337.378 409.017 337.378C408.684 337.378 408.399 337.465 408.162 337.64C407.924 337.814 407.805 338.044 407.805 338.329C407.805 338.677 407.964 338.97 408.281 339.208C408.613 339.43 409.112 339.675 409.777 339.945C410.237 340.135 410.577 340.285 410.799 340.396C411.021 340.491 411.33 340.657 411.726 340.895C412.138 341.133 412.439 341.37 412.629 341.608C412.835 341.846 413.017 342.154 413.175 342.535C413.35 342.915 413.437 343.335 413.437 343.794C413.437 345.093 412.961 346.091 412.011 346.788C411.076 347.469 409.952 347.81 408.637 347.81C406.704 347.81 405.025 347.097 403.6 345.671L405.524 343.675C406.047 344.182 406.522 344.554 406.95 344.792C407.393 345.03 407.9 345.149 408.471 345.149C408.867 345.149 409.231 345.053 409.564 344.863C409.896 344.673 410.063 344.404 410.063 344.055C410.063 343.96 410.047 343.873 410.015 343.794C409.999 343.699 409.96 343.612 409.896 343.533C409.833 343.453 409.77 343.382 409.706 343.319C409.659 343.255 409.579 343.192 409.469 343.129C409.358 343.05 409.263 342.986 409.183 342.939C409.104 342.891 408.985 342.836 408.827 342.772C408.684 342.693 408.566 342.638 408.471 342.606C408.391 342.558 408.265 342.503 408.09 342.44C407.916 342.36 407.782 342.297 407.686 342.25C406.72 341.838 405.952 341.37 405.382 340.848C404.827 340.309 404.55 339.549 404.55 338.566C404.55 337.362 404.986 336.428 405.857 335.762C406.744 335.081 407.797 334.741 409.017 334.741C410.744 334.741 412.185 335.287 413.342 336.38Z" fill="white"/>
<path d="M465.191 330.891H470.466C471.179 330.891 471.876 330.986 472.557 331.176C473.238 331.366 473.887 331.652 474.505 332.032C475.123 332.396 475.614 332.919 475.978 333.6C476.358 334.265 476.548 335.026 476.548 335.881C476.548 337.085 476.208 338.075 475.527 338.852C474.846 339.612 473.982 340.166 472.937 340.515C474.616 342.875 476.311 345.212 478.022 347.525H473.745L469.183 340.895H468.589V347.525H465.191V330.891ZM468.589 333.766V338.02H469.919C470.822 338.02 471.543 337.853 472.081 337.521C472.636 337.172 472.913 336.65 472.913 335.953C472.913 335.303 472.675 334.78 472.2 334.384C471.741 333.972 471.131 333.766 470.371 333.766H468.589ZM490.559 342.107H481.767C481.894 342.994 482.226 343.715 482.765 344.269C483.319 344.824 484.032 345.101 484.903 345.101C485.664 345.101 486.289 344.951 486.781 344.65C487.272 344.349 487.731 343.881 488.159 343.248L490.368 344.745C489.64 345.806 488.832 346.582 487.945 347.073C487.074 347.564 485.981 347.81 484.666 347.81C482.781 347.81 481.252 347.216 480.08 346.028C478.924 344.84 478.345 343.303 478.345 341.418C478.345 339.533 478.955 337.949 480.175 336.665C481.395 335.382 482.9 334.741 484.69 334.741C486.432 334.741 487.874 335.287 489.014 336.38C490.155 337.473 490.725 338.852 490.725 340.515C490.725 340.99 490.669 341.521 490.559 342.107ZM481.933 339.802H487.28C487.248 339.057 486.994 338.471 486.519 338.044C486.06 337.6 485.482 337.378 484.785 337.378C483.296 337.378 482.345 338.186 481.933 339.802ZM500.489 335.026H504.243L499.11 347.525H496.354L491.65 335.026H495.38L497.899 342.725H497.946L500.489 335.026ZM517.22 342.107H508.429C508.555 342.994 508.888 343.715 509.427 344.269C509.981 344.824 510.694 345.101 511.565 345.101C512.325 345.101 512.951 344.951 513.442 344.65C513.933 344.349 514.393 343.881 514.82 343.248L517.03 344.745C516.301 345.806 515.494 346.582 514.606 347.073C513.735 347.564 512.642 347.81 511.328 347.81C509.443 347.81 507.914 347.216 506.742 346.028C505.585 344.84 505.007 343.303 505.007 341.418C505.007 339.533 505.617 337.949 506.837 336.665C508.056 335.382 509.561 334.741 511.351 334.741C513.094 334.741 514.535 335.287 515.676 336.38C516.816 337.473 517.387 338.852 517.387 340.515C517.387 340.99 517.331 341.521 517.22 342.107ZM508.595 339.802H513.941C513.91 339.057 513.656 338.471 513.181 338.044C512.721 337.6 512.143 337.378 511.446 337.378C509.957 337.378 509.007 338.186 508.595 339.802ZM519.831 335.026H522.754L523.015 336.737C523.965 335.406 525.256 334.741 526.888 334.741C528.25 334.741 529.359 335.287 530.214 336.38C530.959 337.347 531.331 338.899 531.331 341.038V347.525H527.957V341.204C527.957 339.921 527.83 339.026 527.577 338.519C527.276 337.933 526.722 337.64 525.914 337.64C525.407 337.64 524.9 337.782 524.393 338.067C523.902 338.352 523.506 338.741 523.205 339.232V347.525H519.831V335.026ZM545.924 347.525H543.002L542.74 345.814C541.79 347.145 540.499 347.81 538.867 347.81C537.505 347.81 536.396 347.263 535.541 346.17C534.796 345.204 534.424 343.652 534.424 341.513V335.026H537.798V341.347C537.798 342.63 537.925 343.525 538.178 344.032C538.479 344.618 539.034 344.911 539.842 344.911C540.348 344.911 540.847 344.768 541.339 344.483C541.845 344.198 542.249 343.81 542.55 343.319V335.026H545.924V347.525ZM560.565 342.107H551.774C551.9 342.994 552.233 343.715 552.771 344.269C553.326 344.824 554.039 345.101 554.91 345.101C555.67 345.101 556.296 344.951 556.787 344.65C557.278 344.349 557.737 343.881 558.165 343.248L560.375 344.745C559.646 345.806 558.838 346.582 557.951 347.073C557.08 347.564 555.987 347.81 554.672 347.81C552.787 347.81 551.259 347.216 550.087 346.028C548.93 344.84 548.352 343.303 548.352 341.418C548.352 339.533 548.962 337.949 550.182 336.665C551.401 335.382 552.906 334.741 554.696 334.741C556.439 334.741 557.88 335.287 559.021 336.38C560.161 337.473 560.731 338.852 560.731 340.515C560.731 340.99 560.676 341.521 560.565 342.107ZM551.94 339.802H557.286C557.254 339.057 557.001 338.471 556.526 338.044C556.066 337.6 555.488 337.378 554.791 337.378C553.302 337.378 552.352 338.186 551.94 339.802ZM577.766 336.38L575.913 338.424C575.121 337.727 574.297 337.378 573.441 337.378C573.109 337.378 572.824 337.465 572.586 337.64C572.348 337.814 572.23 338.044 572.23 338.329C572.23 338.677 572.388 338.97 572.705 339.208C573.038 339.43 573.536 339.675 574.202 339.945C574.661 340.135 575.002 340.285 575.224 340.396C575.445 340.491 575.754 340.657 576.15 340.895C576.562 341.133 576.863 341.37 577.053 341.608C577.259 341.846 577.441 342.154 577.6 342.535C577.774 342.915 577.861 343.335 577.861 343.794C577.861 345.093 577.386 346.091 576.435 346.788C575.501 347.469 574.376 347.81 573.061 347.81C571.129 347.81 569.45 347.097 568.024 345.671L569.949 343.675C570.471 344.182 570.947 344.554 571.374 344.792C571.818 345.03 572.325 345.149 572.895 345.149C573.291 345.149 573.655 345.053 573.988 344.863C574.321 344.673 574.487 344.404 574.487 344.055C574.487 343.96 574.471 343.873 574.439 343.794C574.424 343.699 574.384 343.612 574.321 343.533C574.257 343.453 574.194 343.382 574.131 343.319C574.083 343.255 574.004 343.192 573.893 343.129C573.782 343.05 573.687 342.986 573.608 342.939C573.529 342.891 573.41 342.836 573.251 342.772C573.109 342.693 572.99 342.638 572.895 342.606C572.816 342.558 572.689 342.503 572.515 342.44C572.341 342.36 572.206 342.297 572.111 342.25C571.145 341.838 570.376 341.37 569.806 340.848C569.252 340.309 568.974 339.549 568.974 338.566C568.974 337.362 569.41 336.428 570.281 335.762C571.168 335.081 572.222 334.741 573.441 334.741C575.168 334.741 576.61 335.287 577.766 336.38ZM580.556 335.026H583.478L583.74 336.57C584.152 335.953 584.714 335.493 585.427 335.192C586.156 334.891 586.884 334.741 587.613 334.741C589.26 334.741 590.638 335.382 591.747 336.665C592.872 337.933 593.434 339.485 593.434 341.323C593.434 343.113 592.872 344.642 591.747 345.909C590.638 347.176 589.252 347.81 587.589 347.81C586.021 347.81 584.801 347.311 583.93 346.313V353.465H580.556V335.026ZM583.93 339.303V343.556C584.674 344.459 585.641 344.911 586.829 344.911C587.843 344.911 588.619 344.547 589.157 343.818C589.712 343.073 589.989 342.21 589.989 341.228C589.989 340.246 589.704 339.406 589.134 338.709C588.563 337.996 587.811 337.64 586.876 337.64C585.577 337.64 584.595 338.194 583.93 339.303ZM599.222 329.703V347.525H595.848V329.703H599.222ZM605.881 347.525H602.507V335.026H605.881V347.525ZM605.881 333.291H602.507V330.416H605.881V333.291ZM615.868 337.83H612.684V342.677C612.684 343.153 612.699 343.509 612.731 343.747C612.826 344.539 613.19 344.935 613.824 344.935C614.252 344.935 614.703 344.816 615.178 344.578L616.224 347.073C615.384 347.564 614.394 347.81 613.254 347.81C612.303 347.81 611.503 347.572 610.854 347.097C610.22 346.606 609.785 345.949 609.547 345.125C609.389 344.618 609.31 343.921 609.31 343.034V337.83H607.813V335.026H609.31L609.832 332.269H612.684V335.026H615.868V337.83ZM626.796 336.38L624.942 338.424C624.15 337.727 623.326 337.378 622.471 337.378C622.138 337.378 621.853 337.465 621.616 337.64C621.378 337.814 621.259 338.044 621.259 338.329C621.259 338.677 621.418 338.97 621.735 339.208C622.067 339.43 622.566 339.675 623.231 339.945C623.691 340.135 624.031 340.285 624.253 340.396C624.475 340.491 624.784 340.657 625.18 340.895C625.592 341.133 625.893 341.37 626.083 341.608C626.289 341.846 626.471 342.154 626.629 342.535C626.803 342.915 626.891 343.335 626.891 343.794C626.891 345.093 626.415 346.091 625.465 346.788C624.53 347.469 623.406 347.81 622.091 347.81C620.158 347.81 618.479 347.097 617.054 345.671L618.978 343.675C619.501 344.182 619.976 344.554 620.404 344.792C620.847 345.03 621.354 345.149 621.925 345.149C622.321 345.149 622.685 345.053 623.018 344.863C623.35 344.673 623.517 344.404 623.517 344.055C623.517 343.96 623.501 343.873 623.469 343.794C623.453 343.699 623.414 343.612 623.35 343.533C623.287 343.453 623.224 343.382 623.16 343.319C623.113 343.255 623.033 343.192 622.923 343.129C622.812 343.05 622.717 342.986 622.637 342.939C622.558 342.891 622.439 342.836 622.281 342.772C622.138 342.693 622.02 342.638 621.925 342.606C621.845 342.558 621.719 342.503 621.544 342.44C621.37 342.36 621.236 342.297 621.14 342.25C620.174 341.838 619.406 341.37 618.836 340.848C618.281 340.309 618.004 339.549 618.004 338.566C618.004 337.362 618.44 336.428 619.311 335.762C620.198 335.081 621.251 334.741 622.471 334.741C624.198 334.741 625.639 335.287 626.796 336.38Z" fill="white"/>
<path d="M61.6536 312.871H62.8733V308.394H67.0315V307.23H62.8733V304.333H67.7106V303.168H61.6536V312.871ZM70.415 310.75C70.415 312.137 71.1219 312.982 72.5496 312.982C73.5059 312.982 74.4069 312.414 74.9197 311.582V312.871H76.084V305.885H74.9197V308.699C74.9197 309.683 74.7257 310.459 74.3237 311.055C73.9217 311.638 73.4366 311.929 72.8683 311.929C72.009 311.929 71.5793 311.457 71.5793 310.501V305.885H70.415V310.75ZM80.3686 310.238C80.3686 311.97 81.3804 312.982 83.0021 312.982C84.4574 312.982 85.4415 312.109 85.6772 310.445L84.6238 310.238C84.4436 311.36 83.903 311.929 83.0021 311.929C82.018 311.929 81.5329 311.36 81.5329 310.238V303.168H78.442V304.222H80.3686V310.238ZM88.9637 310.238C88.9637 311.97 89.9755 312.982 91.5972 312.982C93.0525 312.982 94.0366 312.109 94.2723 310.445L93.2189 310.238C93.0387 311.36 92.4981 311.929 91.5972 311.929C90.6131 311.929 90.128 311.36 90.128 310.238V303.168H87.0371V304.222H88.9637V310.238ZM99.4166 311L97.0738 305.885H95.7709L98.7925 312.4L97.4341 315.699H98.5984L102.743 305.885H101.482L99.4166 311ZM114.735 306.939V310.556C114.735 312.164 115.567 312.982 117.106 312.982C117.937 312.982 118.658 312.677 119.254 312.081L118.824 311.097C118.298 311.651 117.729 311.929 117.106 311.929C116.302 311.929 115.9 311.457 115.9 310.515V306.939H119.309V305.885H115.9V303.057L114.735 303.792V305.885H112.878V306.939H114.735ZM123.288 310.861C123.288 310.071 123.968 309.572 125.146 309.572H126.67V309.794C126.67 310.501 126.435 311.042 125.963 311.402C125.506 311.748 124.993 311.929 124.439 311.929C123.732 311.929 123.288 311.527 123.288 310.861ZM127.835 308.463C127.835 306.62 126.781 305.774 125.063 305.774C123.773 305.774 122.706 306.537 122.387 307.743L123.413 308.02C123.635 307.313 124.272 306.828 125.063 306.828C126.005 306.828 126.67 307.257 126.67 308.269V308.574H125.257C123.275 308.574 122.096 309.35 122.096 310.861C122.096 312.234 123.025 312.982 124.259 312.982C125.298 312.982 126.282 312.539 126.726 311.887L126.892 312.871H127.835V308.463ZM133.076 306.911V311.845H130.664V312.871H136.818V311.845H134.24V305.885H130.941V306.911H133.076ZM132.618 304.028C132.618 304.541 133.034 304.97 133.575 304.97C134.115 304.97 134.531 304.568 134.531 304.028C134.531 303.487 134.115 303.057 133.575 303.057C133.034 303.057 132.618 303.487 132.618 304.028ZM140.535 310.238C140.535 311.97 141.547 312.982 143.168 312.982C144.624 312.982 145.608 312.109 145.843 310.445L144.79 310.238C144.61 311.36 144.069 311.929 143.168 311.929C142.184 311.929 141.699 311.36 141.699 310.238V303.168H138.608V304.222H140.535V310.238ZM148.145 311.929C148.769 312.636 149.601 312.982 150.64 312.982C151.68 312.982 152.511 312.636 153.135 311.929C153.759 311.222 154.078 310.376 154.078 309.378C154.078 308.38 153.759 307.535 153.135 306.828C152.511 306.121 151.68 305.774 150.64 305.774C149.601 305.774 148.769 306.121 148.145 306.828C147.522 307.535 147.203 308.38 147.203 309.378C147.203 310.376 147.522 311.222 148.145 311.929ZM149.005 307.576C149.407 307.077 149.961 306.828 150.64 306.828C151.319 306.828 151.874 307.077 152.276 307.576C152.678 308.075 152.886 308.671 152.886 309.378C152.886 310.085 152.678 310.681 152.276 311.18C151.874 311.679 151.319 311.929 150.64 311.929C149.961 311.929 149.407 311.679 149.005 311.18C148.603 310.681 148.395 310.085 148.395 309.378C148.395 308.671 148.603 308.075 149.005 307.576ZM162.687 308.103C162.618 306.606 161.772 305.774 160.386 305.774C159.263 305.774 158.404 306.245 157.808 307.174V305.885H156.644V312.871H157.808V310.348C157.808 309.226 158.044 308.366 158.501 307.756C158.958 307.133 159.527 306.828 160.178 306.828C160.968 306.828 161.426 307.257 161.523 308.103H162.687ZM171.241 309.143C171.241 308.186 170.95 307.382 170.368 306.745C169.785 306.093 168.968 305.774 167.928 305.774C166.916 305.774 166.099 306.121 165.489 306.814C164.893 307.507 164.588 308.366 164.588 309.378C164.588 310.418 164.893 311.277 165.503 311.956C166.126 312.636 166.93 312.982 167.928 312.982C169.37 312.982 170.423 312.331 171.102 311.028L170.174 310.543C169.675 311.471 168.926 311.929 167.928 311.929C166.695 311.929 165.849 311.014 165.78 309.628H171.241V309.143ZM167.928 306.828C169.051 306.828 169.799 307.465 170.007 308.574H165.863C166.099 307.479 166.833 306.828 167.928 306.828ZM176.301 305.774C174.291 305.774 173.099 307.202 173.099 309.378C173.099 311.554 174.291 312.982 176.301 312.982C177.202 312.982 178.006 312.539 178.435 311.943V312.871H179.6V303.057H178.435V306.772C178.006 306.204 177.23 305.774 176.301 305.774ZM174.859 307.535C175.234 307.063 175.76 306.828 176.412 306.828C177.063 306.828 177.59 307.063 177.964 307.535C178.338 308.006 178.532 308.616 178.532 309.378C178.532 310.141 178.338 310.75 177.964 311.222C177.59 311.693 177.063 311.929 176.412 311.929C175.76 311.929 175.234 311.693 174.859 311.222C174.485 310.75 174.291 310.141 174.291 309.378C174.291 308.616 174.485 308.006 174.859 307.535Z" fill="white"/>
<path d="M262.229 309.503C262.229 310.584 262.548 311.43 263.199 312.053C263.851 312.677 264.669 312.982 265.667 312.982C266.665 312.982 267.482 312.677 268.134 312.053C268.785 311.43 269.104 310.584 269.104 309.503V303.168H267.884V309.586C267.884 310.917 267.067 311.818 265.667 311.818C264.267 311.818 263.449 310.917 263.449 309.586V303.168H262.229V309.503ZM277.201 308.006C277.201 306.62 276.494 305.774 275.066 305.774C274.11 305.774 273.209 306.343 272.696 307.174V305.885H271.532V312.871H272.696V310.057C272.696 309.073 272.89 308.297 273.292 307.715C273.694 307.119 274.179 306.828 274.747 306.828C275.607 306.828 276.036 307.299 276.036 308.255V312.871H277.201V308.006ZM282.482 306.911V311.845H280.071V312.871H286.225V311.845H283.647V305.885H280.348V306.911H282.482ZM282.025 304.028C282.025 304.541 282.441 304.97 282.981 304.97C283.522 304.97 283.938 304.568 283.938 304.028C283.938 303.487 283.522 303.057 282.981 303.057C282.441 303.057 282.025 303.487 282.025 304.028ZM291.147 305.774C289.137 305.774 287.945 307.202 287.945 309.378C287.945 311.554 289.137 312.982 291.147 312.982C292.076 312.982 292.852 312.552 293.282 311.984V315.699H294.446V305.885H293.282V306.814C292.852 306.218 292.048 305.774 291.147 305.774ZM289.706 307.535C290.08 307.063 290.607 306.828 291.258 306.828C291.91 306.828 292.436 307.063 292.81 307.535C293.185 308.006 293.379 308.616 293.379 309.378C293.379 310.141 293.185 310.75 292.81 311.222C292.436 311.693 291.91 311.929 291.258 311.929C290.607 311.929 290.08 311.693 289.706 311.222C289.331 310.75 289.137 310.141 289.137 309.378C289.137 308.616 289.331 308.006 289.706 307.535ZM297.179 310.75C297.179 312.137 297.885 312.982 299.313 312.982C300.269 312.982 301.17 312.414 301.683 311.582V312.871H302.847V305.885H301.683V308.699C301.683 309.683 301.489 310.459 301.087 311.055C300.685 311.638 300.2 311.929 299.632 311.929C298.772 311.929 298.343 311.457 298.343 310.501V305.885H297.179V310.75ZM312.052 309.143C312.052 308.186 311.761 307.382 311.179 306.745C310.597 306.093 309.779 305.774 308.739 305.774C307.727 305.774 306.91 306.121 306.3 306.814C305.704 307.507 305.399 308.366 305.399 309.378C305.399 310.418 305.704 311.277 306.314 311.956C306.937 312.636 307.741 312.982 308.739 312.982C310.181 312.982 311.234 312.331 311.913 311.028L310.985 310.543C310.486 311.471 309.737 311.929 308.739 311.929C307.506 311.929 306.66 311.014 306.591 309.628H312.052V309.143ZM308.739 306.828C309.862 306.828 310.61 307.465 310.818 308.574H306.674C306.91 307.479 307.644 306.828 308.739 306.828Z" fill="white"/>
<path d="M470.351 309.683C469.907 311.125 469.228 311.818 468.022 311.818C466.304 311.818 465.278 310.584 465.278 308.02C465.278 305.455 466.304 304.222 468.022 304.222C469.228 304.222 469.907 304.915 470.351 306.356L471.501 306.01C471.058 304.222 469.838 303.057 468.022 303.057C466.858 303.057 465.902 303.487 465.139 304.333C464.391 305.178 464.017 306.412 464.017 308.02C464.017 309.628 464.391 310.861 465.139 311.707C465.902 312.552 466.858 312.982 468.022 312.982C469.838 312.982 471.058 311.818 471.501 310.03L470.351 309.683ZM473.361 310.75C473.361 312.137 474.067 312.982 475.495 312.982C476.451 312.982 477.352 312.414 477.865 311.582V312.871H479.03V305.885H477.865V308.699C477.865 309.683 477.671 310.459 477.269 311.055C476.867 311.638 476.382 311.929 475.814 311.929C474.955 311.929 474.525 311.457 474.525 310.501V305.885H473.361V310.75ZM484.796 305.774C484.131 305.774 483.563 305.954 483.106 306.329C482.648 306.703 482.412 307.188 482.412 307.798C482.412 309.032 483.244 309.531 484.672 309.822C485.947 310.099 486.474 310.293 486.474 310.847C486.474 311.554 485.836 311.929 484.991 311.929C484.048 311.929 483.383 311.416 483.064 310.543L481.955 310.958C482.385 312.247 483.549 312.982 484.991 312.982C485.753 312.982 486.39 312.788 486.903 312.386C487.416 311.984 487.679 311.43 487.679 310.737C487.679 310.002 487.25 309.531 486.598 309.253C486.141 309.045 485.767 308.962 485.171 308.838C484.062 308.616 483.549 308.325 483.549 307.756C483.549 307.133 484.09 306.828 484.755 306.828C485.462 306.828 486.03 307.202 486.432 307.937L487.347 307.285C486.792 306.273 485.947 305.774 484.796 305.774ZM491.895 306.939V310.556C491.895 312.164 492.727 312.982 494.265 312.982C495.097 312.982 495.818 312.677 496.414 312.081L495.984 311.097C495.457 311.651 494.889 311.929 494.265 311.929C493.461 311.929 493.059 311.457 493.059 310.515V306.939H496.469V305.885H493.059V303.057L491.895 303.792V305.885H490.038V306.939H491.895ZM499.52 311.929C500.144 312.636 500.976 312.982 502.015 312.982C503.055 312.982 503.886 312.636 504.51 311.929C505.134 311.222 505.453 310.376 505.453 309.378C505.453 308.38 505.134 307.535 504.51 306.828C503.886 306.121 503.055 305.774 502.015 305.774C500.976 305.774 500.144 306.121 499.52 306.828C498.897 307.535 498.578 308.38 498.578 309.378C498.578 310.376 498.897 311.222 499.52 311.929ZM500.38 307.576C500.782 307.077 501.336 306.828 502.015 306.828C502.694 306.828 503.249 307.077 503.651 307.576C504.053 308.075 504.261 308.671 504.261 309.378C504.261 310.085 504.053 310.681 503.651 311.18C503.249 311.679 502.694 311.929 502.015 311.929C501.336 311.929 500.782 311.679 500.38 311.18C499.978 310.681 499.77 310.085 499.77 309.378C499.77 308.671 499.978 308.075 500.38 307.576ZM514.463 307.659C514.463 306.384 513.867 305.774 512.938 305.774C512.218 305.774 511.594 306.232 511.22 306.911C511.012 306.148 510.527 305.774 509.778 305.774C509.099 305.774 508.558 306.107 508.143 306.772V305.885H506.978V312.871H508.143V309.586C508.143 307.743 508.655 306.842 509.376 306.842C509.917 306.842 510.138 307.146 510.138 307.909V312.871H511.303V309.586C511.303 307.743 511.816 306.842 512.536 306.842C513.077 306.842 513.299 307.146 513.299 307.909V312.871H514.463V307.659Z" fill="white"/>
<path d="M436.606 302.97V350.495" stroke="#545454" stroke-width="2" stroke-dasharray="4 4"/>
<path d="M234.639 302.97V350.495" stroke="#545454" stroke-width="2" stroke-dasharray="4 4"/>
<path d="M84.1532 100C102.197 100 116.824 85.3717 116.824 67.3267C116.824 49.2818 102.197 34.6534 84.1532 34.6534C66.1093 34.6534 51.4819 49.2818 51.4819 67.3267C51.4819 85.3717 66.1093 100 84.1532 100Z" fill="#2F2F2F"/>
<path d="M96.0105 68.3042C96.0105 67.6735 95.9461 67.1691 95.8819 66.9168C95.6245 64.8988 95.0458 63.5744 94.7886 63.1329C94.7242 63.0068 94.6598 62.8808 94.5956 62.6916L94.5312 62.6285H94.467C94.4026 62.6285 94.274 62.6285 94.0811 62.6285C92.6662 62.7546 91.5729 63.0699 90.8655 63.3221C90.7369 63.3852 90.6726 63.3852 90.544 63.4483C90.544 63.3852 90.544 63.2591 90.4796 63.196C90.2224 61.4303 89.7079 60.0428 89.4507 59.4123C89.1935 58.7185 88.8075 58.0879 88.486 57.4572C88.4217 57.3942 87.3284 55.5653 85.6563 54.0519C85.3347 53.7996 84.7559 53.232 83.7912 52.6014C83.727 52.5383 83.6626 52.5383 83.6626 52.5383L83.5984 52.4752L83.534 52.5383C83.534 52.5383 83.4697 52.6014 83.4054 52.6014C81.2832 54.0519 80.0612 55.6915 79.4824 56.5113C79.0966 57.0158 78.1961 58.4663 77.4887 60.2321C76.9742 61.5564 76.7814 62.6285 76.717 63.1329C76.717 63.196 76.717 63.3221 76.6527 63.3852C76.6527 63.3852 76.3311 63.2591 75.7523 63.0699C75.7523 63.0699 75.6881 63.0699 75.5594 63.0068C74.852 62.8177 73.8873 62.6285 72.6654 62.5023C72.6654 62.5023 72.6654 62.5023 72.3438 63.3221C72.2152 63.5114 72.1508 63.7636 72.0866 64.0158C71.4435 65.7186 71.1863 67.4843 71.3149 69.3132C71.3791 70.4484 71.5721 71.5205 71.958 72.5295C72.8583 75.3673 74.5304 77.7637 76.8456 79.5925C77.2958 79.971 78.1319 80.6016 79.3538 81.1692C81.2188 82.0521 82.9552 82.1782 83.7912 82.1782C83.8556 82.1782 83.9199 82.1782 83.9842 82.1782C83.9842 82.1782 86.428 82.1151 88.7433 80.8538C89.0648 80.6646 89.4507 80.4755 89.4507 80.4755C90.0294 80.0971 90.4796 79.7187 90.7369 79.5295C91.9588 78.5205 93.0521 77.3222 93.8881 75.9349C95.0458 74.106 95.5603 72.4033 95.7531 71.5205C96.0105 70.0069 96.0747 68.8717 96.0105 68.3042ZM83.727 76.3132C83.727 77.5745 83.4697 78.8989 83.0838 80.1602C81.5404 79.8448 78.6464 79.025 76.4598 76.6286C74.852 74.8628 74.1446 72.9078 73.8873 72.2772C73.3729 70.8898 73.1799 69.4394 73.2442 67.9889C73.2442 67.6105 73.3729 66.3492 73.8873 64.7726V64.7096C73.9516 64.7096 73.9516 64.7096 74.0159 64.7096C75.2379 64.8988 76.0096 65.214 76.3311 65.3402C76.3311 65.3402 76.4598 65.4032 76.524 65.4032C77.8103 65.9078 78.9036 66.8537 79.2252 67.106C81.0902 68.6195 81.9905 70.2592 82.3121 70.8898C82.5051 71.2682 82.6337 71.5835 82.6979 71.8357C83.0195 72.7187 83.4054 73.5385 83.534 74.4844C83.727 75.3042 83.727 75.9349 83.727 76.3132ZM83.6626 69.2502C83.2124 68.4933 82.6979 67.7997 82.1191 67.106C81.8619 66.8537 81.5404 66.4122 81.0258 65.9709C80.8329 65.7817 80.3827 65.4032 79.8039 64.9619C79.4181 64.7096 79.0322 64.4573 78.6464 64.205C78.7106 63.5744 78.8392 63.0068 78.9679 62.3762C79.4824 60.3582 80.3185 58.7816 80.8972 57.8987C81.2188 57.4572 81.7976 56.5743 82.7623 55.6284C83.0838 55.313 83.341 55.0609 83.6626 54.8086C85.1418 55.9437 86.2994 57.3312 87.1355 58.8446C87.3927 59.3492 87.9715 60.4213 88.3574 61.8717C88.5503 62.6285 88.6789 63.4483 88.8075 64.205C87.65 64.8357 86.6853 65.6555 85.785 66.5384C85.1418 67.1691 84.3701 68.052 83.6626 69.2502ZM92.3446 74.6106C91.7659 75.5565 91.0585 76.4394 90.2868 77.1331C88.8719 78.4574 87.1355 79.4034 85.2061 79.9079C85.4634 79.1512 85.592 78.3943 85.6563 77.5745C85.7206 77.0701 85.7206 76.1871 85.6563 75.1781C85.5276 73.9169 85.2704 72.6556 84.7559 71.4574C85.1418 70.5745 85.6562 69.7546 86.2351 68.9979C87.0711 67.9889 87.8428 67.2952 88.2288 66.9799C89.0005 66.3492 89.9008 65.8447 90.8012 65.4663C91.6373 65.088 92.5376 64.8357 93.4379 64.7096C93.5665 65.214 93.6953 65.6555 93.8239 66.1601C94.0168 67.2952 94.0811 68.1781 94.1454 68.2412C94.1454 69.061 94.0168 71.8357 92.3446 74.6106Z" fill="white"/>
<path d="M89.992 232.463L112.324 208.911H106.029L88.7703 231.029L69.9496 208.911H64.0729H61.1655H60.3923L83.3267 235.806L66.439 254.092L60.3923 260.396H66.6864L84.9196 237.668L104.312 260.396H105.179H111.967H113.854L89.992 232.463Z" fill="url(#paint3_radial)"/>
</g>
<defs>
<radialGradient id="paint0_radial" cx="0" cy="0" r="1" gradientUnits="userSpaceOnUse" gradientTransform="translate(795 196.04) rotate(179.713) scale(791.05 1588.19)">
<stop stop-color="#EB9038"/>
<stop offset="0.463542" stop-color="#8DC4F3"/>
<stop offset="1" stop-color="#F3C3CF"/>
</radialGradient>
<radialGradient id="paint1_radial" cx="0" cy="0" r="1" gradientUnits="userSpaceOnUse" gradientTransform="translate(191.692 152.404) rotate(90) scale(27.8733 132.765)">
<stop stop-color="#EB9038"/>
<stop offset="0.505208" stop-color="#F3C3CF"/>
<stop offset="1" stop-color="#8DC4F3"/>
</radialGradient>
<radialGradient id="paint2_radial" cx="0" cy="0" r="1" gradientUnits="userSpaceOnUse" gradientTransform="translate(200.294 232.166) rotate(90) scale(29.2277 68.7549)">
<stop stop-color="#EB9038"/>
<stop offset="0.515625" stop-color="#F3C3CF"/>
<stop offset="1" stop-color="#8DC4F3"/>
</radialGradient>
<radialGradient id="paint3_radial" cx="0" cy="0" r="1" gradientUnits="userSpaceOnUse" gradientTransform="translate(87.1233 208.911) rotate(90) scale(51.4852 53.462)">
<stop stop-color="#EB9038"/>
<stop offset="0.515625" stop-color="#F3C3CF"/>
<stop offset="1" stop-color="#8DC4F3"/>
</radialGradient>
</defs>
</svg>
